<svg width="21" height="20" viewBox="0 0 21 20" fill="none" xmlns="http://www.w3.org/2000/svg">
<path d="M3.23445 1.9414C2.84383 2.07812 2.56258 2.36719 2.43758 2.75781C2.37899 2.92969 2.37508 3.625 2.38289 10.0781L2.39461 17.207L2.50008 17.4062C2.65633 17.7031 2.77352 17.8242 3.04695 17.9727L3.29305 18.1055H5.7618C8.19149 18.1055 8.23055 18.1055 8.33602 18.0234C8.54305 17.8711 8.60555 17.7461 8.60555 17.5C8.60555 17.2539 8.54305 17.1289 8.33602 16.9766C8.23055 16.8945 8.18367 16.8945 5.92586 16.8828L3.62508 16.875V10V3.125L5.92586 3.11719C8.18367 3.10547 8.23055 3.10547 8.33602 3.02344C8.54305 2.87109 8.60555 2.74609 8.60555 2.5C8.60555 2.2539 8.54305 2.1289 8.33602 1.97656C8.23055 1.89453 8.18367 1.89453 5.82039 1.88672C3.70711 1.8789 3.3868 1.88672 3.23445 1.9414Z" fill="black"/>
<path d="M13.4766 5.27344C13.4062 5.31641 13.3164 5.40625 13.2734 5.47656C13.1797 5.62891 13.168 5.93359 13.25 6.08594C13.2812 6.14453 14.0195 6.90234 14.8906 7.77344L16.4766 9.35547L11.1875 9.375C5.91797 9.39453 5.89453 9.39453 5.78906 9.47656C5.58203 9.62891 5.51953 9.75391 5.51953 10C5.51953 10.2461 5.58203 10.3711 5.78906 10.5234C5.89453 10.6055 5.91797 10.6055 11.1875 10.625L16.4766 10.6445L14.8906 12.2266C14.0195 13.0977 13.2812 13.8555 13.25 13.9141C13.2188 13.9727 13.1953 14.1055 13.1953 14.207C13.1953 14.5586 13.4414 14.8047 13.793 14.8047C13.8984 14.8047 14.0195 14.7852 14.0664 14.7617C14.1875 14.6992 18.5 10.3945 18.5703 10.2656C18.6016 10.207 18.625 10.0898 18.625 10C18.625 9.91016 18.6016 9.79297 18.5703 9.73438C18.5 9.60547 14.1875 5.30078 14.0664 5.23828C13.9297 5.16797 13.6211 5.1875 13.4766 5.27344Z" fill="black"/>
</svg>
