<svg width="21" height="20" viewBox="0 0 21 20" fill="none" xmlns="http://www.w3.org/2000/svg">
<path d="M9.95312 0.0234375C8.69531 0.179688 7.64453 0.691406 6.76953 1.57812C5.99219 2.36328 5.54688 3.19922 5.31641 4.29688C5.22266 4.75781 5.22266 5.78906 5.31641 6.25C5.54688 7.34766 5.99609 8.1875 6.76953 8.96875C7.55469 9.76172 8.41406 10.2266 9.52344 10.457C9.98047 10.5508 11.0078 10.5508 11.4844 10.457C12.5391 10.2461 13.4141 9.77734 14.1953 9.00391C14.9844 8.22656 15.4531 7.35938 15.6836 6.25C15.7773 5.78906 15.7773 4.75781 15.6836 4.29688C15.5312 3.57422 15.2539 2.90625 14.8555 2.30469C14.6094 1.93359 13.8477 1.16797 13.4844 0.929688C12.8555 0.511719 12.1758 0.226562 11.5078 0.0976562C11.1914 0.0351562 10.2266 -0.0117188 9.95312 0.0234375Z" fill="black"/>
<path d="M8.40224 11.7812C6.21474 12.0469 4.24208 13.2852 2.97255 15.1953C2.22645 16.3125 1.80067 17.6328 1.72645 19.043C1.70302 19.4766 1.70692 19.5273 1.78505 19.6797C1.83974 19.7891 1.91786 19.8672 2.02333 19.9219C2.17567 20 2.23427 20 10.4999 20C18.7655 20 18.8241 20 18.9765 19.9219C19.0819 19.8672 19.16 19.7891 19.2147 19.6797C19.2929 19.5273 19.2968 19.4766 19.2733 19.043C19.1718 17.1172 18.4374 15.4297 17.1015 14.0469C15.8358 12.7383 14.203 11.9414 12.4179 11.7578C11.828 11.6992 8.9452 11.7148 8.40224 11.7812Z" fill="black"/>
</svg>
