<svg width="228" height="53" viewBox="0 0 228 53" fill="none" xmlns="http://www.w3.org/2000/svg">
<path d="M76.6499 38.6604V39.7204C76.3499 39.4104 76.0299 39.1804 75.6799 39.0104C75.2599 38.8104 74.8299 38.7104 74.3999 38.7104C73.5499 38.7104 72.84 39.0204 72.27 39.6304C71.7 40.2504 71.42 41.0004 71.42 41.9004C71.42 42.8604 71.7299 43.6304 72.3499 44.1804C72.9699 44.7304 73.66 45.0204 74.41 45.0204C74.88 45.0204 75.3399 44.9004 75.7899 44.6604C76.0999 44.5004 76.3899 44.2804 76.6499 44.0204V45.0804C75.9799 45.5804 75.23 45.8304 74.41 45.8304C73.31 45.8304 72.4 45.4504 71.67 44.6904C70.94 43.9304 70.5699 43.0004 70.5699 41.8904C70.5699 40.7804 70.9399 39.8004 71.6799 39.0404C72.4199 38.2804 73.34 37.9004 74.45 37.9004C75.27 37.9004 75.9999 38.1504 76.6399 38.6604H76.6499Z" fill="#DCDCDC"/>
<path d="M90.0399 44.6804C89.2899 45.4404 88.3799 45.8204 87.2999 45.8204C86.2199 45.8204 85.2999 45.4404 84.5599 44.6804C83.8199 43.9204 83.4399 42.9804 83.4399 41.8604C83.4399 40.7404 83.8099 39.7804 84.5599 39.0304C85.3099 38.2804 86.2199 37.9004 87.2999 37.9004C88.3799 37.9004 89.2899 38.2804 90.0399 39.0304C90.7899 39.7804 91.1599 40.7304 91.1599 41.8604C91.1599 42.9904 90.7899 43.9304 90.0399 44.6804ZM89.4299 39.6204C88.8399 39.0104 88.1299 38.7004 87.2899 38.7004C86.4499 38.7004 85.7399 39.0104 85.1499 39.6204C84.5599 40.2304 84.2699 40.9804 84.2699 41.8604C84.2699 42.7404 84.5599 43.4904 85.1499 44.1004C85.7399 44.7104 86.4499 45.0204 87.2899 45.0204C88.1299 45.0204 88.8399 44.7104 89.4299 44.1004C90.0199 43.4904 90.3099 42.7404 90.3099 41.8604C90.3099 40.9804 90.0199 40.2304 89.4299 39.6204Z" fill="#DCDCDC"/>
<path d="M98.34 38.0305H99.16V44.8805H101.21V45.6805H98.34V38.0205V38.0305Z" fill="#DCDCDC"/>
<path d="M108 38.0305H108.82V44.8805H110.87V45.6805H108V38.0205V38.0305Z" fill="#DCDCDC"/>
<path d="M121.5 38.0303V38.8303H118.47V41.1003H121.41V41.9003H118.47V44.8703H121.5V45.6703H117.65V38.0103H121.5V38.0303Z" fill="#DCDCDC"/>
<path d="M132.51 42.6404V41.8404H135.6V42.0204C135.6 42.9704 135.36 43.7804 134.89 44.4404C134.23 45.3604 133.31 45.8204 132.13 45.8204C131.03 45.8204 130.12 45.4404 129.38 44.6804C128.65 43.9204 128.28 42.9804 128.28 41.8604C128.28 40.7404 128.65 39.8004 129.39 39.0404C130.13 38.2804 131.05 37.9004 132.15 37.9004C133.03 37.9004 133.78 38.1504 134.42 38.6604C134.75 38.9204 135.03 39.2204 135.28 39.5704L134.67 40.1404C134.46 39.8304 134.22 39.5604 133.97 39.3504C133.46 38.9204 132.86 38.7104 132.17 38.7104C131.29 38.7104 130.56 39.0104 129.99 39.6204C129.42 40.2204 129.13 40.9804 129.13 41.8804C129.13 42.5404 129.29 43.1104 129.6 43.6104C129.91 44.1004 130.29 44.4604 130.74 44.6904C131.19 44.9204 131.66 45.0304 132.15 45.0304C132.64 45.0304 133.09 44.9104 133.49 44.6804C133.89 44.4504 134.2 44.1304 134.42 43.7404C134.61 43.4104 134.71 43.0504 134.72 42.6504H132.52L132.51 42.6404Z" fill="#DCDCDC"/>
<path d="M146.63 38.0303V38.8303H143.6V41.1003H146.54V41.9003H143.6V44.8703H146.63V45.6703H142.78V38.0103H146.63V38.0303Z" fill="#DCDCDC"/>
<path d="M167.04 45.6802L166.17 43.5202H163.01L162.12 45.6802H161.21L164.62 37.6602L167.95 45.6802H167.04ZM163.34 42.7202H165.85L164.6 39.6602L163.33 42.7202H163.34Z" fill="#DCDCDC"/>
<path d="M174.67 38.0305H175.49V44.8805H177.54V45.6805H174.67V38.0205V38.0305Z" fill="#DCDCDC"/>
<path d="M184.91 45.6803H184.06L185.29 37.6003L188.14 44.0603L191.04 37.5903L192.2 45.6803H191.35L190.65 40.3503L188.13 46.0003L185.64 40.3503L184.91 45.6803Z" fill="#DCDCDC"/>
<path d="M204.55 45.6802L203.68 43.5202H200.52L199.63 45.6802H198.72L202.13 37.6602L205.46 45.6802H204.55ZM200.85 42.7202H203.36L202.11 39.6602L200.84 42.7202H200.85Z" fill="#DCDCDC"/>
<path d="M215.31 38.8303H213.51V45.6803H212.69V38.8303H210.89V38.0303H215.32V38.8303H215.31Z" fill="#DCDCDC"/>
<path d="M223.89 45.6803V42.3903L221.45 38.0303H222.41L224.3 41.4503L226.21 38.0303H227.17L224.71 42.3903V45.6803H223.89Z" fill="#DCDCDC"/>
<path d="M68.6768 29.9902V21.263H71.6257C72.3103 21.263 72.87 21.3865 73.3047 21.6337C73.7422 21.878 74.066 22.209 74.2762 22.6266C74.4865 23.0442 74.5916 23.5101 74.5916 24.0243C74.5916 24.5385 74.4865 25.0059 74.2762 25.4263C74.0689 25.8468 73.7478 26.182 73.3132 26.432C72.8785 26.6792 72.3217 26.8027 71.6427 26.8027H69.5291V25.8652H71.6086C72.0774 25.8652 72.4538 25.7843 72.7379 25.6223C73.022 25.4604 73.2279 25.2417 73.3558 24.9661C73.4865 24.6877 73.5518 24.3738 73.5518 24.0243C73.5518 23.6749 73.4865 23.3624 73.3558 23.0868C73.2279 22.8113 73.0206 22.5953 72.7336 22.4391C72.4467 22.28 72.066 22.2005 71.5916 22.2005H69.7336V29.9902H68.6768ZM83.6576 25.6266C83.6576 26.5471 83.4914 27.3425 83.1591 28.013C82.8267 28.6834 82.3707 29.2005 81.7912 29.5641C81.2116 29.9277 80.5497 30.1096 79.8054 30.1096C79.061 30.1096 78.3991 29.9277 77.8196 29.5641C77.24 29.2005 76.7841 28.6834 76.4517 28.013C76.1193 27.3425 75.9531 26.5471 75.9531 25.6266C75.9531 24.7061 76.1193 23.9107 76.4517 23.2402C76.7841 22.5698 77.24 22.0527 77.8196 21.6891C78.3991 21.3255 79.061 21.1436 79.8054 21.1436C80.5497 21.1436 81.2116 21.3255 81.7912 21.6891C82.3707 22.0527 82.8267 22.5698 83.1591 23.2402C83.4914 23.9107 83.6576 24.7061 83.6576 25.6266ZM82.6349 25.6266C82.6349 24.8709 82.5085 24.2331 82.2556 23.7132C82.0056 23.1934 81.6662 22.7999 81.2372 22.5328C80.811 22.2658 80.3338 22.1323 79.8054 22.1323C79.277 22.1323 78.7983 22.2658 78.3693 22.5328C77.9431 22.7999 77.6037 23.1934 77.3508 23.7132C77.1008 24.2331 76.9758 24.8709 76.9758 25.6266C76.9758 26.3823 77.1008 27.0201 77.3508 27.54C77.6037 28.0598 77.9431 28.4533 78.3693 28.7203C78.7983 28.9874 79.277 29.1209 79.8054 29.1209C80.3338 29.1209 80.811 28.9874 81.2372 28.7203C81.6662 28.4533 82.0056 28.0598 82.2556 27.54C82.5085 27.0201 82.6349 26.3823 82.6349 25.6266ZM85.4346 29.9902V21.263H86.4914V29.0527H90.5483V29.9902H85.4346ZM91.0245 21.263H92.2347L94.6552 25.3368H94.7574L97.1779 21.263H98.3881L95.2347 26.3936V29.9902H94.1779V26.3936L91.0245 21.263ZM99.8284 22.2005V21.263H106.374V22.2005H103.63V29.9902H102.573V22.2005H99.8284ZM108.005 29.9902V21.263H113.272V22.2005H109.062V25.1493H112.999V26.0868H109.062V29.0527H113.34V29.9902H108.005ZM122.2 23.9902H121.143C121.08 23.6863 120.971 23.4192 120.815 23.1891C120.661 22.959 120.474 22.7658 120.252 22.6096C120.033 22.4505 119.79 22.3311 119.523 22.2516C119.256 22.1721 118.978 22.1323 118.688 22.1323C118.16 22.1323 117.681 22.2658 117.252 22.5328C116.826 22.7999 116.486 23.1934 116.234 23.7132C115.984 24.2331 115.859 24.8709 115.859 25.6266C115.859 26.3823 115.984 27.0201 116.234 27.54C116.486 28.0598 116.826 28.4533 117.252 28.7203C117.681 28.9874 118.16 29.1209 118.688 29.1209C118.978 29.1209 119.256 29.0811 119.523 29.0016C119.79 28.9221 120.033 28.8042 120.252 28.6479C120.474 28.4888 120.661 28.2942 120.815 28.0641C120.971 27.8311 121.08 27.5641 121.143 27.263H122.2C122.12 27.709 121.975 28.1081 121.765 28.4604C121.555 28.8127 121.293 29.1124 120.981 29.3596C120.668 29.6039 120.317 29.79 119.928 29.9178C119.542 30.0456 119.129 30.1096 118.688 30.1096C117.944 30.1096 117.282 29.9277 116.702 29.5641C116.123 29.2005 115.667 28.6834 115.334 28.013C115.002 27.3425 114.836 26.5471 114.836 25.6266C114.836 24.7061 115.002 23.9107 115.334 23.2402C115.667 22.5698 116.123 22.0527 116.702 21.6891C117.282 21.3255 117.944 21.1436 118.688 21.1436C119.129 21.1436 119.542 21.2076 119.928 21.3354C120.317 21.4632 120.668 21.6507 120.981 21.8979C121.293 22.1422 121.555 22.4405 121.765 22.7928C121.975 23.1422 122.12 23.5414 122.2 23.9902ZM123.907 29.9902V21.263H124.964V25.1493H129.618V21.263H130.674V29.9902H129.618V26.0868H124.964V29.9902H123.907Z" fill="#DCDCDC"/>
<path d="M55.72 48.1102V27.4502H52.75V48.1102C52.68 48.3202 52.47 48.8302 51.95 49.2302C51.29 49.7402 50.56 49.7302 50.36 49.7202H6.16C5.95 49.6402 5.44 49.4302 5.04 48.9102C4.53 48.2502 4.54 47.5202 4.55 47.3202V41.6402C5.5 41.1202 6.14 40.1102 6.14 38.9502C6.14 37.2502 4.77 35.8802 3.07 35.8802C1.37 35.8802 0 37.2602 0 38.9502C0 40.1102 0.64 41.1202 1.59 41.6402V47.3202C1.63 47.8702 1.8 49.2202 2.81 50.5202C4.03 52.1002 5.67 52.5602 6.16 52.6702H50.36C50.91 52.6202 52.26 52.4502 53.56 51.4402C55.14 50.2202 55.6 48.5802 55.71 48.0902L55.72 48.1102ZM3.08 38.0002C3.61 38.0002 4.04 38.4302 4.04 38.9602C4.04 39.4902 3.61 39.9202 3.08 39.9202C2.55 39.9202 2.12 39.4902 2.12 38.9602C2.12 38.4302 2.55 38.0002 3.08 38.0002Z" fill="white"/>
<path d="M55.72 16.84V5.35C55.72 4.99 55.65 2.94 53.99 1.41C52.67 0.2 51.16 0.04 50.69 0H6.94998C6.58998 0 4.53998 0.0700001 3.00998 1.73C1.79998 3.05 1.63998 4.56 1.59998 5.03V31.96H4.56998V5.04C4.56998 4.87 4.63998 4.16 5.22998 3.58C5.92998 2.9 6.81998 2.96 6.95998 2.97H50.68C50.85 2.97 51.56 3.04 52.14 3.63C52.82 4.33 52.76 5.22 52.75 5.36V16.85C51.8 17.37 51.16 18.38 51.16 19.54C51.16 21.24 52.54 22.61 54.23 22.61C55.92 22.61 57.3 21.24 57.3 19.54C57.3 18.38 56.66 17.37 55.71 16.85L55.72 16.84ZM54.24 20.49C53.71 20.49 53.28 20.06 53.28 19.53C53.28 19 53.71 18.57 54.24 18.57C54.77 18.57 55.2 19 55.2 19.53C55.2 20.06 54.77 20.49 54.24 20.49Z" fill="#C4292D"/>
<path d="M41.2601 31.3897C41.1901 31.4697 41.1201 31.5397 41.0401 31.6097H24.8101L27.3901 24.9697H34.8401L37.9101 28.0397L37.9601 28.0897L41.2701 31.3997L41.2601 31.3897Z" fill="#AE2729"/>
<path d="M27.39 24.9697L24.81 31.6097H24.8V24.9697H27.39Z" fill="#591B17"/>
<path d="M41.44 14.9398H24.8L20.34 10.4698L18.4 8.5298C18.49 8.4398 18.6 8.3598 18.71 8.2998H34.57C34.72 8.3498 34.86 8.4098 34.99 8.4798L35.95 9.4398L40.14 13.6298L41.4 14.8898C41.4 14.8898 41.41 14.9098 41.42 14.9298L41.44 14.9398Z" fill="#C4292D"/>
<path d="M41.4701 14.9997V31.1097C41.4101 31.2097 41.3401 31.2997 41.2601 31.3897L37.9501 28.0797L37.9001 28.0297L34.8201 24.9497V17.5997L36.6701 16.8497L41.4201 14.9297H41.4301C41.4301 14.9297 41.4501 14.9697 41.4501 14.9897L41.4701 14.9997Z" fill="white"/>
<path d="M41.4301 14.9399L36.6801 16.8699L34.8301 17.6199V14.9399H41.4301Z" fill="#222221"/>
<path d="M20.34 10.4698L18.4 8.52979C18.3 8.61979 18.22 8.72979 18.15 8.84979V41.0398C18.2 41.2198 18.27 41.3998 18.35 41.5598L18.57 41.7798L18.75 37.5298C18.54 37.4398 18.39 37.2198 18.4 36.9698C18.41 36.6498 18.68 36.3998 19 36.4098C19.32 36.4198 19.57 36.6898 19.56 37.0098C19.55 37.2598 19.39 37.4598 19.16 37.5298L18.97 42.1598L19.93 43.1198L20.4 29.3698C20.19 29.2798 20.04 29.0598 20.05 28.8198C20.06 28.4998 20.33 28.2498 20.65 28.2598C20.97 28.2698 21.22 28.5398 21.21 28.8598C21.21 29.1098 21.04 29.3098 20.82 29.3898L20.34 43.4498H20.26L21.18 44.3698L21.58 33.5798C21.37 33.4898 21.22 33.2698 21.23 33.0298C21.24 32.7098 21.51 32.4598 21.83 32.4698C22.15 32.4798 22.4 32.7498 22.39 33.0698C22.39 33.3198 22.22 33.5198 22 33.5998L21.59 44.7698L22.52 45.6998L22.72 40.5098C22.51 40.4198 22.36 40.1998 22.37 39.9598C22.38 39.6398 22.65 39.3898 22.97 39.3998C23.29 39.4098 23.54 39.6798 23.53 39.9998C23.53 40.2498 23.36 40.4498 23.14 40.5298L22.93 46.0998L24.17 47.3398C24.41 47.5798 24.81 47.4098 24.81 47.0698V14.9298L20.35 10.4698H20.34Z" fill="#771E19"/>
<path d="M29.16 42.4201L28.78 42.6601C28.75 42.5801 28.7 42.5101 28.64 42.4501C28.55 42.3701 28.43 42.3301 28.3 42.3301C28.16 42.3301 28.05 42.3701 27.98 42.4401C27.91 42.5101 27.87 42.6101 27.87 42.7201C27.87 42.8901 27.98 43.0301 28.21 43.1201L28.52 43.2501C29.01 43.4601 29.25 43.7901 29.25 44.2301C29.25 44.5501 29.16 44.8001 28.97 45.0001C28.78 45.2001 28.54 45.3001 28.25 45.3001C27.96 45.3001 27.7 45.1901 27.52 44.9701C27.37 44.7901 27.28 44.5701 27.26 44.3201L27.73 44.2101C27.73 44.3701 27.77 44.5101 27.86 44.6301C27.96 44.7601 28.1 44.8301 28.27 44.8301C28.42 44.8301 28.54 44.7801 28.64 44.6801C28.74 44.5801 28.79 44.4401 28.79 44.2801C28.79 44.1301 28.75 44.0101 28.67 43.9301C28.59 43.8501 28.48 43.7801 28.34 43.7201L28.04 43.5901C27.62 43.4001 27.4 43.1201 27.4 42.7501C27.4 42.5101 27.48 42.3001 27.65 42.1301C27.81 41.9601 28.04 41.8701 28.32 41.8701C28.57 41.8701 28.78 41.9401 28.95 42.0901C29.05 42.1801 29.13 42.2901 29.19 42.4201H29.16Z" fill="#DCDCDC"/>
<path d="M29.84 41.9199H30.32V45.2399H29.84V41.9199Z" fill="#DCDCDC"/>
<path d="M31.5501 45.2399H31.0701V41.6899L33.3301 44.2199V41.9199H33.8101V45.4499L31.5501 42.9199V45.2399Z" fill="#DCDCDC"/>
<path d="M36.87 42.1001V42.7001C36.61 42.4501 36.33 42.3301 36.02 42.3301C35.68 42.3301 35.41 42.4501 35.2 42.6901C34.99 42.9301 34.88 43.2301 34.88 43.6001C34.88 43.9701 34.99 44.2501 35.2 44.4901C35.41 44.7301 35.69 44.8501 36.02 44.8501C36.33 44.8501 36.61 44.7201 36.86 44.4701V45.0701C36.6 45.2401 36.31 45.3201 36 45.3201C35.57 45.3201 35.2 45.1701 34.9 44.8601C34.57 44.5301 34.4 44.1101 34.4 43.6001C34.4 43.0701 34.57 42.6401 34.9 42.3001C35.19 42.0101 35.56 41.8701 36.03 41.8701C36.35 41.8701 36.63 41.9501 36.86 42.1101L36.87 42.1001Z" fill="#DCDCDC"/>
<path d="M39.18 41.9199V42.3999H37.94V43.2399H39.15V43.7199H37.94V44.7699H39.18V45.2499H37.46V41.9299H39.18V41.9199Z" fill="#DCDCDC"/>
<path d="M41.68 45.2402V42.3802H41.14L41.4 41.9102H42.16V45.2302H41.68V45.2402Z" fill="#DCDCDC"/>
<path d="M43.55 45.3601L43.2 45.0901L43.93 44.0901C43.88 44.1001 43.82 44.1101 43.76 44.1101C43.47 44.1101 43.22 44.0101 43.03 43.8001C42.84 43.6001 42.74 43.3401 42.74 43.0401C42.74 42.7101 42.84 42.4301 43.05 42.2101C43.26 41.9901 43.52 41.8701 43.85 41.8701C44.18 41.8701 44.45 41.9801 44.65 42.2001C44.83 42.4001 44.92 42.6501 44.92 42.9501C44.92 43.1701 44.87 43.3801 44.77 43.5801C44.75 43.6301 44.73 43.6701 44.7 43.7101C44.67 43.7501 44.65 43.8001 44.62 43.8401C44.59 43.8901 44.57 43.9201 44.55 43.9401C44.53 43.9601 44.51 44.0001 44.46 44.0601C44.42 44.1201 44.39 44.1501 44.38 44.1701L43.51 45.3601H43.55ZM43.84 43.6701C44.02 43.6701 44.17 43.6001 44.29 43.4701C44.41 43.3301 44.47 43.1701 44.47 42.9801C44.47 42.7901 44.41 42.6301 44.29 42.5101C44.17 42.3801 44.02 42.3201 43.85 42.3201C43.68 42.3201 43.53 42.3801 43.41 42.5101C43.29 42.6401 43.23 42.8001 43.23 43.0001C43.23 43.2001 43.29 43.3601 43.41 43.4901C43.53 43.6101 43.68 43.6701 43.85 43.6701H43.84Z" fill="#DCDCDC"/>
<path d="M46.9 41.6699V44.1399H47.24V44.6099H46.9V45.2399H46.44V44.6099H44.9L46.9 41.6699ZM45.73 44.1499H46.44V43.0799L45.73 44.1499Z" fill="#DCDCDC"/>
<path d="M48.7901 45.2999C48.5201 45.2999 48.2801 45.1799 48.0801 44.9399C47.8101 44.6199 47.6801 44.1699 47.6801 43.5799C47.6801 42.9899 47.8101 42.5399 48.0801 42.2199C48.2801 41.9799 48.5101 41.8599 48.7901 41.8599C49.0701 41.8599 49.3001 41.9799 49.5001 42.2199C49.7701 42.5399 49.9001 42.9999 49.9001 43.5799C49.9001 44.1599 49.7701 44.6099 49.5001 44.9399C49.3001 45.1799 49.0701 45.2999 48.7901 45.2999ZM48.7901 42.3199C48.6201 42.3199 48.4801 42.4099 48.3701 42.5899C48.2301 42.8199 48.1501 43.1499 48.1501 43.5799C48.1501 44.0099 48.2201 44.3399 48.3701 44.5799C48.4801 44.7599 48.6201 44.8499 48.7901 44.8499C48.9601 44.8499 49.1001 44.7599 49.2101 44.5799C49.3501 44.3499 49.4301 44.0199 49.4301 43.5799C49.4301 43.1399 49.3601 42.8099 49.2101 42.5899C49.1001 42.4099 48.9601 42.3199 48.7901 42.3199Z" fill="#DCDCDC"/>
</svg>
